<svg xmlns="http://www.w3.org/2000/svg" width="256" height="256" fill="none" viewBox="0 0 256 256" id="bluesky">
  <rect width="224" height="224" x="16" y="16" fill="url(#paint0_linear_531_13644)" rx="70"></rect>
  <path fill="url(#paint1_linear_531_13644)" d="M91.9568 82.2328C106.545 93.2222 122.239 115.501 127.999 127.457V159.035C127.999 158.363 127.74 159.123 127.184 160.759C124.177 169.619 112.434 204.197 85.5823 176.554C71.4435 162 77.989 147.445 103.726 143.051C89.0022 145.564 72.4495 141.411 67.9083 125.126C66.5999 120.442 64.373 91.5878 64.373 87.6907C64.373 68.1695 81.4307 74.3054 91.9568 82.2328ZM164.041 82.2328C149.453 93.2222 133.759 115.501 127.999 127.457V159.035C127.999 158.363 128.257 159.123 128.814 160.759C131.82 169.619 143.563 204.197 170.415 176.554C184.554 162 178.009 147.445 152.272 143.051C166.995 145.564 183.548 141.411 188.089 125.126C189.398 120.442 191.625 91.5878 191.625 87.6907C191.625 68.1695 174.569 74.3054 164.041 82.2328Z"></path>
  <defs>
    <linearGradient id="paint0_linear_531_13644" x1="16" x2="208" y1="16" y2="240" gradientUnits="userSpaceOnUse">
      <stop stop-color="#fff"></stop>
      <stop offset="1" stop-color="#ACCCFF"></stop>
    </linearGradient>
    <linearGradient id="paint1_linear_531_13644" x1="64.373" x2="64.373" y1="74.667" y2="187.072" gradientUnits="userSpaceOnUse">
      <stop stop-color="#0A7AFF"></stop>
      <stop offset="1" stop-color="#59B9FF"></stop>
    </linearGradient>
  </defs>
</svg>
