<svg class="svg-icon" style="width: 1em;height: 1em;vertical-align: middle;fill: currentColor;overflow: hidden;" viewBox="0 0 1024 1024" version="1.1" xmlns="http://www.w3.org/2000/svg"><path d="M552.62 873.14a16 16 0 0 1-8-2.14L244.94 698a16 16 0 0 1-8-13.86v-346a16 16 0 0 1 8-13.86l299.68-173.04a16 16 0 0 1 16 0l299.66 173.02a16 16 0 0 1 8 13.86v346a16 16 0 0 1-8 13.86L560.62 871a16 16 0 0 1-8 2.14z m-283.68-198.24l283.66 163.78 283.66-163.78V347.34L552.62 183.58l-283.68 163.76z" fill="#18659E" /><path d="M552.62 170.5m-53.78 0a53.78 53.78 0 1 0 107.56 0 53.78 53.78 0 1 0-107.56 0Z" fill="#99D1FF" /><path d="M256.62 690.28m-53.78 0a53.78 53.78 0 1 0 107.56 0 53.78 53.78 0 1 0-107.56 0Z" fill="#99D1FF" /><path d="M256.62 760a69.78 69.78 0 1 1 69.78-69.78A69.86 69.86 0 0 1 256.62 760z m0-107.54a37.78 37.78 0 1 0 37.78 37.78 37.82 37.82 0 0 0-37.78-37.74z" fill="#18659E" /><path d="M856.62 690.28m-53.78 0a53.78 53.78 0 1 0 107.56 0 53.78 53.78 0 1 0-107.56 0Z" fill="#99D1FF" /><path d="M856.62 760a69.78 69.78 0 1 1 69.78-69.78A69.86 69.86 0 0 1 856.62 760z m0-107.54a37.78 37.78 0 1 0 37.78 37.78 37.82 37.82 0 0 0-37.78-37.74zM552.62 371.36a16 16 0 0 1-16-16v-131.1a16 16 0 1 1 32 0v131.1a16 16 0 0 1-16 16z" fill="#18659E" /><path d="M552.62 846.92m-53.78 0a53.78 53.78 0 1 0 107.56 0 53.78 53.78 0 1 0-107.56 0Z" fill="#99D1FF" /><path d="M552.62 916.7a69.78 69.78 0 1 1 69.78-69.78 69.86 69.86 0 0 1-69.78 69.78z m0-107.54a37.78 37.78 0 1 0 37.78 37.78 37.82 37.82 0 0 0-37.78-37.8z" fill="#18659E" /><path d="M552.62 809.14a16 16 0 0 1-16-16V662a16 16 0 0 1 32 0v131.1a16 16 0 0 1-16 16.04z" fill="#18659E" /><path d="M329.8 616.06l-33.16 33.16" fill="#FFFFFF" /><path d="M296.64 665.22a16 16 0 0 1-11.32-27.32l33.16-33.16a16 16 0 0 1 22.62 22.62L308 660.52a16 16 0 0 1-11.36 4.7z" fill="#18659E" /><path d="M805.76 649.22l-33.14-33.16" fill="#FFFFFF" /><path d="M805.76 665.22a16 16 0 0 1-11.32-4.68l-33.16-33.16A16 16 0 0 1 784 604.74l33.16 33.16a16 16 0 0 1-11.32 27.32z" fill="#18659E" /><path d="M838.66 331.36m-53.78 0a53.78 53.78 0 1 0 107.56 0 53.78 53.78 0 1 0-107.56 0Z" fill="#99D1FF" /><path d="M838.66 401.14a69.78 69.78 0 1 1 69.78-69.78 69.86 69.86 0 0 1-69.78 69.78z m0-107.54a37.78 37.78 0 1 0 37.78 37.78 37.82 37.82 0 0 0-37.78-37.8z" fill="#18659E" /><path d="M797.6 382.2l-33.16 33.16" fill="#FFFFFF" /><path d="M764.44 431.36a16 16 0 0 1-11.32-27.36l33.16-33.16a16 16 0 0 1 22.62 22.62l-33.16 33.16a16 16 0 0 1-11.3 4.74z" fill="#18659E" /><path d="M266.56 332.92m-53.78 0a53.78 53.78 0 1 0 107.56 0 53.78 53.78 0 1 0-107.56 0Z" fill="#99D1FF" /><path d="M266.56 402.68a69.78 69.78 0 1 1 69.78-69.78 69.86 69.86 0 0 1-69.78 69.78z m0-107.54a37.78 37.78 0 1 0 37.78 37.78 37.82 37.82 0 0 0-37.78-37.78z" fill="#18659E" /><path d="M317.42 373.98l33.14 33.14" fill="#FFFFFF" /><path d="M350.56 423.12a16 16 0 0 1-11.32-4.68L306 385.28a16 16 0 0 1 22.62-22.62l33.16 33.16a16 16 0 0 1-11.32 27.32zM348.8 438.5h67.32l32.32 97.62h1.34v-97.62h43.54v155.74h-62.16l-37.02-104.12h-1.34v104.12h-44zM625.28 555.86v38.38h-102.34v-155.74h44.66v117.36zM645.02 438.5h60.6a131.58 131.58 0 0 1 30.74 3.02 46.22 46.22 0 0 1 19.86 9.64 36 36 0 0 1 10.66 17.16A90.58 90.58 0 0 1 770 494a93.24 93.24 0 0 1-3.48 27.5 38.14 38.14 0 0 1-11.22 17.84 46.2 46.2 0 0 1-20 9.66 130.1 130.1 0 0 1-29.74 2.92h-16v42.42h-44.54z m54 77.86q14 0 19.64-4.48t5.72-16.84q0-13.02-5.84-17.62t-19.52-4.6h-9.42v43.54z" fill="#18659E" /></svg>